ISO-10303-21;
HEADER;
/* Generated by software containing ST-Developer
 * from STEP Tools, Inc. (www.steptools.com) 
 */

FILE_DESCRIPTION(
/* description */ (''),
/* implementation_level */ '2;1');

FILE_NAME(
/* name */ 'GPS Clamp.step',
/* time_stamp */ '2026-09-26T23:33:08-07:00',
/* author */ (''),
/* organization */ (''),
/* preprocessor_version */ 'ST-DEVELOPER v20.1',
/* originating_system */ 'Autodesk Translation Framework v15.8.0.0',
/* authorisation */ '');

FILE_SCHEMA (('AUTOMOTIVE_DESIGN { 1 0 10303 214 3 1 1 }'));
ENDSEC;

DATA;
#10=MECHANICAL_DESIGN_GEOMETRIC_PRESENTATION_REPRESENTATION('',(#13),#1271);
#11=SHAPE_REPRESENTATION_RELATIONSHIP('SRR','None',#1277,#12);
#12=ADVANCED_BREP_SHAPE_REPRESENTATION('',(#14),#1270);
#13=STYLED_ITEM('',(#1286),#14);
#14=MANIFOLD_SOLID_BREP('Body1',#777);
#15=FACE_BOUND('',#125,.T.);
#16=FACE_BOUND('',#126,.T.);
#17=FACE_BOUND('',#134,.T.);
#18=FACE_BOUND('',#135,.T.);
#19=FACE_BOUND('',#137,.T.);
#20=FACE_BOUND('',#139,.T.);
#21=CYLINDRICAL_SURFACE('',#810,2.75000000000013);
#22=CYLINDRICAL_SURFACE('',#813,2.75000000000013);
#23=CYLINDRICAL_SURFACE('',#821,1.99999999999999);
#24=CYLINDRICAL_SURFACE('',#825,1.99999999999999);
#25=CYLINDRICAL_SURFACE('',#836,1.09999999999999);
#26=CYLINDRICAL_SURFACE('',#837,1.09999999999999);
#27=CIRCLE('',#801,2.50000000000014);
#28=CIRCLE('',#802,2.75000000000013);
#29=CIRCLE('',#805,2.50000000000012);
#30=CIRCLE('',#806,2.75000000000013);
#31=CIRCLE('',#811,2.75000000000013);
#32=CIRCLE('',#814,2.75000000000013);
#33=CIRCLE('',#817,2.25);
#34=CIRCLE('',#818,2.25);
#35=CIRCLE('',#820,1.99999999999999);
#36=CIRCLE('',#822,1.99999999999999);
#37=CIRCLE('',#824,1.99999999999999);
#38=CIRCLE('',#826,1.99999999999999);
#39=CIRCLE('',#830,1.09999999999999);
#40=CIRCLE('',#831,1.09999999999999);
#41=CIRCLE('',#833,1.09999999999999);
#42=CIRCLE('',#835,1.09999999999999);
#43=CONICAL_SURFACE('',#800,2.62500000000014,0.785398163397422);
#44=CONICAL_SURFACE('',#804,2.62500000000012,0.785398163397465);
#45=CONICAL_SURFACE('',#819,2.12499999999999,0.785398163397457);
#46=CONICAL_SURFACE('',#823,2.12499999999999,0.785398163397457);
#47=FACE_OUTER_BOUND('',#93,.T.);
#48=FACE_OUTER_BOUND('',#94,.T.);
#49=FACE_OUTER_BOUND('',#95,.T.);
#50=FACE_OUTER_BOUND('',#96,.T.);
#51=FACE_OUTER_BOUND('',#97,.T.);
#52=FACE_OUTER_BOUND('',#98,.T.);
#53=FACE_OUTER_BOUND('',#99,.T.);
#54=FACE_OUTER_BOUND('',#100,.T.);
#55=FACE_OUTER_BOUND('',#101,.T.);
#56=FACE_OUTER_BOUND('',#102,.T.);
#57=FACE_OUTER_BOUND('',#103,.T.);
#58=FACE_OUTER_BOUND('',#104,.T.);
#59=FACE_OUTER_BOUND('',#105,.T.);
#60=FACE_OUTER_BOUND('',#106,.T.);
#61=FACE_OUTER_BOUND('',#107,.T.);
#62=FACE_OUTER_BOUND('',#108,.T.);
#63=FACE_OUTER_BOUND('',#109,.T.);
#64=FACE_OUTER_BOUND('',#110,.T.);
#65=FACE_OUTER_BOUND('',#111,.T.);
#66=FACE_OUTER_BOUND('',#112,.T.);
#67=FACE_OUTER_BOUND('',#113,.T.);
#68=FACE_OUTER_BOUND('',#114,.T.);
#69=FACE_OUTER_BOUND('',#115,.T.);
#70=FACE_OUTER_BOUND('',#116,.T.);
#71=FACE_OUTER_BOUND('',#117,.T.);
#72=FACE_OUTER_BOUND('',#118,.T.);
#73=FACE_OUTER_BOUND('',#119,.T.);
#74=FACE_OUTER_BOUND('',#120,.T.);
#75=FACE_OUTER_BOUND('',#121,.T.);
#76=FACE_OUTER_BOUND('',#122,.T.);
#77=FACE_OUTER_BOUND('',#123,.T.);
#78=FACE_OUTER_BOUND('',#124,.T.);
#79=FACE_OUTER_BOUND('',#127,.T.);
#80=FACE_OUTER_BOUND('',#128,.T.);
#81=FACE_OUTER_BOUND('',#129,.T.);
#82=FACE_OUTER_BOUND('',#130,.T.);
#83=FACE_OUTER_BOUND('',#131,.T.);
#84=FACE_OUTER_BOUND('',#132,.T.);
#85=FACE_OUTER_BOUND('',#133,.T.);
#86=FACE_OUTER_BOUND('',#136,.T.);
#87=FACE_OUTER_BOUND('',#138,.T.);
#88=FACE_OUTER_BOUND('',#140,.T.);
#89=FACE_OUTER_BOUND('',#141,.T.);
#90=FACE_OUTER_BOUND('',#142,.T.);
#91=FACE_OUTER_BOUND('',#143,.T.);
#92=FACE_OUTER_BOUND('',#144,.T.);
#93=EDGE_LOOP('',(#487,#488,#489,#490));
#94=EDGE_LOOP('',(#491,#492,#493,#494));
#95=EDGE_LOOP('',(#495,#496,#497,#498));
#96=EDGE_LOOP('',(#499,#500,#501,#502));
#97=EDGE_LOOP('',(#503,#504,#505,#506));
#98=EDGE_LOOP('',(#507,#508,#509,#510));
#99=EDGE_LOOP('',(#511,#512,#513,#514));
#100=EDGE_LOOP('',(#515,#516,#517,#518));
#101=EDGE_LOOP('',(#519,#520,#521,#522));
#102=EDGE_LOOP('',(#523,#524,#525,#526));
#103=EDGE_LOOP('',(#527,#528,#529,#530));
#104=EDGE_LOOP('',(#531,#532,#533,#534));
#105=EDGE_LOOP('',(#535,#536,#537,#538));
#106=EDGE_LOOP('',(#539,#540,#541,#542));
#107=EDGE_LOOP('',(#543,#544,#545,#546));
#108=EDGE_LOOP('',(#547,#548,#549));
#109=EDGE_LOOP('',(#550,#551,#552,#553));
#110=EDGE_LOOP('',(#554,#555,#556,#557));
#111=EDGE_LOOP('',(#558,#559,#560));
#112=EDGE_LOOP('',(#561,#562,#563,#564));
#113=EDGE_LOOP('',(#565,#566,#567,#568));
#114=EDGE_LOOP('',(#569,#570,#571,#572));
#115=EDGE_LOOP('',(#573,#574,#575,#576));
#116=EDGE_LOOP('',(#577,#578,#579,#580));
#117=EDGE_LOOP('',(#581,#582,#583,#584));
#118=EDGE_LOOP('',(#585,#586,#587,#588));
#119=EDGE_LOOP('',(#589,#590,#591,#592));
#120=EDGE_LOOP('',(#593,#594,#595,#596));
#121=EDGE_LOOP('',(#597,#598,#599,#600,#601,#602,#603,#604,#605,#606,#607,
#608));
#122=EDGE_LOOP('',(#609,#610,#611,#612));
#123=EDGE_LOOP('',(#613,#614,#615,#616));
#124=EDGE_LOOP('',(#617,#618,#619,#620,#621,#622,#623,#624));
#125=EDGE_LOOP('',(#625));
#126=EDGE_LOOP('',(#626));
#127=EDGE_LOOP('',(#627,#628,#629,#630));
#128=EDGE_LOOP('',(#631,#632,#633,#634));
#129=EDGE_LOOP('',(#635,#636,#637,#638));
#130=EDGE_LOOP('',(#639,#640,#641,#642));
#131=EDGE_LOOP('',(#643,#644,#645,#646));
#132=EDGE_LOOP('',(#647,#648,#649,#650));
#133=EDGE_LOOP('',(#651,#652,#653,#654,#655,#656,#657,#658,#659,#660,#661,
#662,#663,#664,#665,#666,#667,#668));
#134=EDGE_LOOP('',(#669));
#135=EDGE_LOOP('',(#670));
#136=EDGE_LOOP('',(#671));
#137=EDGE_LOOP('',(#672));
#138=EDGE_LOOP('',(#673));
#139=EDGE_LOOP('',(#674));
#140=EDGE_LOOP('',(#675,#676,#677,#678));
#141=EDGE_LOOP('',(#679,#680,#681,#682));
#142=EDGE_LOOP('',(#683,#684,#685,#686));
#143=EDGE_LOOP('',(#687,#688,#689,#690));
#144=EDGE_LOOP('',(#691,#692,#693,#694));
#145=LINE('',#1059,#233);
#146=LINE('',#1061,#234);
#147=LINE('',#1063,#235);
#148=LINE('',#1064,#236);
#149=LINE('',#1067,#237);
#150=LINE('',#1069,#238);
#151=LINE('',#1070,#239);
#152=LINE('',#1073,#240);
#153=LINE('',#1075,#241);
#154=LINE('',#1076,#242);
#155=LINE('',#1078,#243);
#156=LINE('',#1079,#244);
#157=LINE('',#1082,#245);
#158=LINE('',#1084,#246);
#159=LINE('',#1085,#247);
#160=LINE('',#1088,#248);
#161=LINE('',#1089,#249);
#162=LINE('',#1094,#250);
#163=LINE('',#1096,#251);
#164=LINE('',#1098,#252);
#165=LINE('',#1099,#253);
#166=LINE('',#1102,#254);
#167=LINE('',#1104,#255);
#168=LINE('',#1105,#256);
#169=LINE('',#1108,#257);
#170=LINE('',#1110,#258);
#171=LINE('',#1111,#259);
#172=LINE('',#1113,#260);
#173=LINE('',#1114,#261);
#174=LINE('',#1117,#262);
#175=LINE('',#1119,#263);
#176=LINE('',#1120,#264);
#177=LINE('',#1123,#265);
#178=LINE('',#1124,#266);
#179=LINE('',#1129,#267);
#180=LINE('',#1131,#268);
#181=LINE('',#1133,#269);
#182=LINE('',#1134,#270);
#183=LINE('',#1138,#271);
#184=LINE('',#1140,#272);
#185=LINE('',#1141,#273);
#186=LINE('',#1145,#274);
#187=LINE('',#1146,#275);
#188=LINE('',#1147,#276);
#189=LINE('',#1149,#277);
#190=LINE('',#1150,#278);
#191=LINE('',#1154,#279);
#192=LINE('',#1156,#280);
#193=LINE('',#1157,#281);
#194=LINE('',#1161,#282);
#195=LINE('',#1162,#283);
#196=LINE('',#1163,#284);
#197=LINE('',#1167,#285);
#198=LINE('',#1168,#286);
#199=LINE('',#1169,#287);
#200=LINE('',#1173,#288);
#201=LINE('',#1179,#289);
#202=LINE('',#1180,#290);
#203=LINE('',#1181,#291);
#204=LINE('',#1185,#292);
#205=LINE('',#1189,#293);
#206=LINE('',#1190,#294);
#207=LINE('',#1192,#295);
#208=LINE('',#1193,#296);
#209=LINE('',#1196,#297);
#210=LINE('',#1197,#298);
#211=LINE('',#1200,#299);
#212=LINE('',#1204,#300);
#213=LINE('',#1205,#301);
#214=LINE('',#1207,#302);
#215=LINE('',#1208,#303);
#216=LINE('',#1210,#304);
#217=LINE('',#1211,#305);
#218=LINE('',#1214,#306);
#219=LINE('',#1217,#307);
#220=LINE('',#1225,#308);
#221=LINE('',#1229,#309);
#222=LINE('',#1233,#310);
#223=LINE('',#1237,#311);
#224=LINE('',#1240,#312);
#225=LINE('',#1242,#313);
#226=LINE('',#1245,#314);
#227=LINE('',#1247,#315);
#228=LINE('',#1248,#316);
#229=LINE('',#1260,#317);
#230=LINE('',#1262,#318);
#231=LINE('',#1264,#319);
#232=LINE('',#1266,#320);
#233=VECTOR('',#845,10.);
#234=VECTOR('',#846,10.);
#235=VECTOR('',#847,10.);
#236=VECTOR('',#848,10.);
#237=VECTOR('',#851,10.);
#238=VECTOR('',#852,10.);
#239=VECTOR('',#853,10.);
#240=VECTOR('',#856,10.);
#241=VECTOR('',#857,10.);
#242=VECTOR('',#858,10.);
#243=VECTOR('',#861,10.);
#244=VECTOR('',#862,10.);
#245=VECTOR('',#865,10.);
#246=VECTOR('',#866,10.);
#247=VECTOR('',#867,10.);
#248=VECTOR('',#870,10.);
#249=VECTOR('',#871,10.);
#250=VECTOR('',#876,10.);
#251=VECTOR('',#877,10.);
#252=VECTOR('',#878,10.);
#253=VECTOR('',#879,10.);
#254=VECTOR('',#882,10.);
#255=VECTOR('',#883,10.);
#256=VECTOR('',#884,10.);
#257=VECTOR('',#887,10.);
#258=VECTOR('',#888,10.);
#259=VECTOR('',#889,10.);
#260=VECTOR('',#892,10.);
#261=VECTOR('',#893,10.);
#262=VECTOR('',#896,10.);
#263=VECTOR('',#897,10.);
#264=VECTOR('',#898,10.);
#265=VECTOR('',#901,10.);
#266=VECTOR('',#902,10.);
#267=VECTOR('',#907,10.);
#268=VECTOR('',#908,10.);
#269=VECTOR('',#909,10.);
#270=VECTOR('',#910,10.);
#271=VECTOR('',#913,10.);
#272=VECTOR('',#914,10.);
#273=VECTOR('',#915,10.);
#274=VECTOR('',#918,10.);
#275=VECTOR('',#919,10.);
#276=VECTOR('',#920,10.);
#277=VECTOR('',#923,10.);
#278=VECTOR('',#924,10.);
#279=VECTOR('',#927,10.);
#280=VECTOR('',#928,10.);
#281=VECTOR('',#929,10.);
#282=VECTOR('',#932,10.);
#283=VECTOR('',#933,10.);
#284=VECTOR('',#934,10.);
#285=VECTOR('',#937,10.);
#286=VECTOR('',#938,10.);
#287=VECTOR('',#939,10.);
#288=VECTOR('',#942,10.);
#289=VECTOR('',#949,10.);
#290=VECTOR('',#950,10.);
#291=VECTOR('',#951,10.);
#292=VECTOR('',#954,10.);
#293=VECTOR('',#961,10.);
#294=VECTOR('',#962,10.);
#295=VECTOR('',#965,10.);
#296=VECTOR('',#966,10.);
#297=VECTOR('',#969,10.);
#298=VECTOR('',#970,10.);
#299=VECTOR('',#973,10.);
#300=VECTOR('',#978,10.);
#301=VECTOR('',#979,10.);
#302=VECTOR('',#980,10.);
#303=VECTOR('',#981,10.);
#304=VECTOR('',#982,10.);
#305=VECTOR('',#983,10.);
#306=VECTOR('',#986,10.);
#307=VECTOR('',#991,10.);
#308=VECTOR('',#1000,2.12499999999999);
#309=VECTOR('',#1005,1.99999999999999);
#310=VECTOR('',#1010,2.12499999999999);
#311=VECTOR('',#1015,1.99999999999999);
#312=VECTOR('',#1020,10.);
#313=VECTOR('',#1023,10.);
#314=VECTOR('',#1026,10.);
#315=VECTOR('',#1027,10.);
#316=VECTOR('',#1028,10.);
#317=VECTOR('',#1043,1.09999999999999);
#318=VECTOR('',#1046,1.09999999999999);
#319=VECTOR('',#1049,10.);
#320=VECTOR('',#1052,10.);
#321=VERTEX_POINT('',#1057);
#322=VERTEX_POINT('',#1058);
#323=VERTEX_POINT('',#1060);
#324=VERTEX_POINT('',#1062);
#325=VERTEX_POINT('',#1066);
#326=VERTEX_POINT('',#1068);
#327=VERTEX_POINT('',#1072);
#328=VERTEX_POINT('',#1074);
#329=VERTEX_POINT('',#1081);
#330=VERTEX_POINT('',#1083);
#331=VERTEX_POINT('',#1087);
#332=VERTEX_POINT('',#1092);
#333=VERTEX_POINT('',#1093);
#334=VERTEX_POINT('',#1095);
#335=VERTEX_POINT('',#1097);
#336=VERTEX_POINT('',#1101);
#337=VERTEX_POINT('',#1103);
#338=VERTEX_POINT('',#1107);
#339=VERTEX_POINT('',#1109);
#340=VERTEX_POINT('',#1116);
#341=VERTEX_POINT('',#1118);
#342=VERTEX_POINT('',#1122);
#343=VERTEX_POINT('',#1127);
#344=VERTEX_POINT('',#1128);
#345=VERTEX_POINT('',#1130);
#346=VERTEX_POINT('',#1132);
#347=VERTEX_POINT('',#1136);
#348=VERTEX_POINT('',#1137);
#349=VERTEX_POINT('',#1139);
#350=VERTEX_POINT('',#1143);
#351=VERTEX_POINT('',#1144);
#352=VERTEX_POINT('',#1152);
#353=VERTEX_POINT('',#1153);
#354=VERTEX_POINT('',#1155);
#355=VERTEX_POINT('',#1159);
#356=VERTEX_POINT('',#1160);
#357=VERTEX_POINT('',#1165);
#358=VERTEX_POINT('',#1166);
#359=VERTEX_POINT('',#1171);
#360=VERTEX_POINT('',#1172);
#361=VERTEX_POINT('',#1177);
#362=VERTEX_POINT('',#1178);
#363=VERTEX_POINT('',#1183);
#364=VERTEX_POINT('',#1184);
#365=VERTEX_POINT('',#1195);
#366=VERTEX_POINT('',#1199);
#367=VERTEX_POINT('',#1203);
#368=VERTEX_POINT('',#1206);
#369=VERTEX_POINT('',#1209);
#370=VERTEX_POINT('',#1213);
#371=VERTEX_POINT('',#1219);
#372=VERTEX_POINT('',#1221);
#373=VERTEX_POINT('',#1224);
#374=VERTEX_POINT('',#1228);
#375=VERTEX_POINT('',#1232);
#376=VERTEX_POINT('',#1236);
#377=VERTEX_POINT('',#1244);
#378=VERTEX_POINT('',#1246);
#379=VERTEX_POINT('',#1249);
#380=VERTEX_POINT('',#1251);
#381=VERTEX_POINT('',#1254);
#382=VERTEX_POINT('',#1257);
#383=EDGE_CURVE('',#321,#322,#145,.T.);
#384=EDGE_CURVE('',#322,#323,#146,.T.);
#385=EDGE_CURVE('',#323,#324,#147,.T.);
#386=EDGE_CURVE('',#321,#324,#148,.T.);
#387=EDGE_CURVE('',#322,#325,#149,.T.);
#388=EDGE_CURVE('',#325,#326,#150,.T.);
#389=EDGE_CURVE('',#326,#323,#151,.T.);
#390=EDGE_CURVE('',#325,#327,#152,.T.);
#391=EDGE_CURVE('',#327,#328,#153,.T.);
#392=EDGE_CURVE('',#328,#326,#154,.T.);
#393=EDGE_CURVE('',#324,#328,#155,.T.);
#394=EDGE_CURVE('',#327,#321,#156,.T.);
#395=EDGE_CURVE('',#329,#324,#157,.T.);
#396=EDGE_CURVE('',#330,#329,#158,.T.);
#397=EDGE_CURVE('',#330,#328,#159,.T.);
#398=EDGE_CURVE('',#331,#323,#160,.T.);
#399=EDGE_CURVE('',#329,#331,#161,.T.);
#400=EDGE_CURVE('',#332,#333,#162,.T.);
#401=EDGE_CURVE('',#333,#334,#163,.T.);
#402=EDGE_CURVE('',#334,#335,#164,.T.);
#403=EDGE_CURVE('',#332,#335,#165,.T.);
#404=EDGE_CURVE('',#333,#336,#166,.T.);
#405=EDGE_CURVE('',#336,#337,#167,.T.);
#406=EDGE_CURVE('',#337,#334,#168,.T.);
#407=EDGE_CURVE('',#336,#338,#169,.T.);
#408=EDGE_CURVE('',#338,#339,#170,.T.);
#409=EDGE_CURVE('',#339,#337,#171,.T.);
#410=EDGE_CURVE('',#335,#339,#172,.T.);
#411=EDGE_CURVE('',#338,#332,#173,.T.);
#412=EDGE_CURVE('',#340,#335,#174,.T.);
#413=EDGE_CURVE('',#341,#340,#175,.T.);
#414=EDGE_CURVE('',#341,#339,#176,.T.);
#415=EDGE_CURVE('',#342,#334,#177,.T.);
#416=EDGE_CURVE('',#340,#342,#178,.T.);
#417=EDGE_CURVE('',#343,#344,#179,.T.);
#418=EDGE_CURVE('',#344,#345,#180,.T.);
#419=EDGE_CURVE('',#345,#346,#181,.T.);
#420=EDGE_CURVE('',#343,#346,#182,.T.);
#421=EDGE_CURVE('',#347,#348,#183,.T.);
#422=EDGE_CURVE('',#349,#347,#184,.T.);
#423=EDGE_CURVE('',#348,#349,#185,.T.);
#424=EDGE_CURVE('',#350,#351,#186,.F.);
#425=EDGE_CURVE('',#350,#349,#187,.T.);
#426=EDGE_CURVE('',#347,#351,#188,.T.);
#427=EDGE_CURVE('',#344,#348,#189,.T.);
#428=EDGE_CURVE('',#349,#345,#190,.T.);
#429=EDGE_CURVE('',#352,#353,#191,.T.);
#430=EDGE_CURVE('',#354,#352,#192,.T.);
#431=EDGE_CURVE('',#353,#354,#193,.T.);
#432=EDGE_CURVE('',#355,#356,#194,.F.);
#433=EDGE_CURVE('',#355,#354,#195,.T.);
#434=EDGE_CURVE('',#352,#356,#196,.T.);
#435=EDGE_CURVE('',#357,#358,#197,.T.);
#436=EDGE_CURVE('',#358,#353,#198,.T.);
#437=EDGE_CURVE('',#354,#357,#199,.T.);
#438=EDGE_CURVE('',#359,#360,#200,.T.);
#439=EDGE_CURVE('',#360,#358,#27,.T.);
#440=EDGE_CURVE('',#357,#359,#28,.T.);
#441=EDGE_CURVE('',#361,#362,#201,.T.);
#442=EDGE_CURVE('',#362,#360,#202,.T.);
#443=EDGE_CURVE('',#359,#361,#203,.T.);
#444=EDGE_CURVE('',#363,#364,#204,.T.);
#445=EDGE_CURVE('',#364,#362,#29,.T.);
#446=EDGE_CURVE('',#361,#363,#30,.T.);
#447=EDGE_CURVE('',#363,#347,#205,.T.);
#448=EDGE_CURVE('',#348,#364,#206,.T.);
#449=EDGE_CURVE('',#346,#352,#207,.T.);
#450=EDGE_CURVE('',#353,#343,#208,.T.);
#451=EDGE_CURVE('',#365,#363,#209,.T.);
#452=EDGE_CURVE('',#365,#351,#210,.T.);
#453=EDGE_CURVE('',#366,#361,#211,.T.);
#454=EDGE_CURVE('',#366,#365,#31,.T.);
#455=EDGE_CURVE('',#367,#326,#212,.T.);
#456=EDGE_CURVE('',#366,#367,#213,.T.);
#457=EDGE_CURVE('',#368,#359,#214,.T.);
#458=EDGE_CURVE('',#342,#368,#215,.T.);
#459=EDGE_CURVE('',#369,#337,#216,.T.);
#460=EDGE_CURVE('',#331,#369,#217,.T.);
#461=EDGE_CURVE('',#370,#357,#218,.T.);
#462=EDGE_CURVE('',#370,#368,#32,.T.);
#463=EDGE_CURVE('',#355,#370,#219,.T.);
#464=EDGE_CURVE('',#371,#371,#33,.T.);
#465=EDGE_CURVE('',#372,#372,#34,.T.);
#466=EDGE_CURVE('',#371,#373,#220,.T.);
#467=EDGE_CURVE('',#373,#373,#35,.T.);
#468=EDGE_CURVE('',#373,#374,#221,.T.);
#469=EDGE_CURVE('',#374,#374,#36,.T.);
#470=EDGE_CURVE('',#372,#375,#222,.T.);
#471=EDGE_CURVE('',#375,#375,#37,.T.);
#472=EDGE_CURVE('',#375,#376,#223,.T.);
#473=EDGE_CURVE('',#376,#376,#38,.T.);
#474=EDGE_CURVE('',#369,#341,#224,.T.);
#475=EDGE_CURVE('',#367,#330,#225,.T.);
#476=EDGE_CURVE('',#356,#377,#226,.T.);
#477=EDGE_CURVE('',#377,#378,#227,.T.);
#478=EDGE_CURVE('',#378,#350,#228,.T.);
#479=EDGE_CURVE('',#379,#379,#39,.T.);
#480=EDGE_CURVE('',#380,#380,#40,.T.);
#481=EDGE_CURVE('',#381,#381,#41,.T.);
#482=EDGE_CURVE('',#382,#382,#42,.T.);
#483=EDGE_CURVE('',#382,#380,#229,.T.);
#484=EDGE_CURVE('',#381,#379,#230,.T.);
#485=EDGE_CURVE('',#377,#346,#231,.T.);
#486=EDGE_CURVE('',#378,#345,#232,.T.);
#487=ORIENTED_EDGE('',*,*,#383,.T.);
#488=ORIENTED_EDGE('',*,*,#384,.T.);
#489=ORIENTED_EDGE('',*,*,#385,.T.);
#490=ORIENTED_EDGE('',*,*,#386,.F.);
#491=ORIENTED_EDGE('',*,*,#387,.T.);
#492=ORIENTED_EDGE('',*,*,#388,.T.);
#493=ORIENTED_EDGE('',*,*,#389,.T.);
#494=ORIENTED_EDGE('',*,*,#384,.F.);
#495=ORIENTED_EDGE('',*,*,#390,.T.);
#496=ORIENTED_EDGE('',*,*,#391,.T.);
#497=ORIENTED_EDGE('',*,*,#392,.T.);
#498=ORIENTED_EDGE('',*,*,#388,.F.);
#499=ORIENTED_EDGE('',*,*,#393,.T.);
#500=ORIENTED_EDGE('',*,*,#391,.F.);
#501=ORIENTED_EDGE('',*,*,#394,.T.);
#502=ORIENTED_EDGE('',*,*,#386,.T.);
#503=ORIENTED_EDGE('',*,*,#393,.F.);
#504=ORIENTED_EDGE('',*,*,#395,.F.);
#505=ORIENTED_EDGE('',*,*,#396,.F.);
#506=ORIENTED_EDGE('',*,*,#397,.T.);
#507=ORIENTED_EDGE('',*,*,#385,.F.);
#508=ORIENTED_EDGE('',*,*,#398,.F.);
#509=ORIENTED_EDGE('',*,*,#399,.F.);
#510=ORIENTED_EDGE('',*,*,#395,.T.);
#511=ORIENTED_EDGE('',*,*,#383,.F.);
#512=ORIENTED_EDGE('',*,*,#394,.F.);
#513=ORIENTED_EDGE('',*,*,#390,.F.);
#514=ORIENTED_EDGE('',*,*,#387,.F.);
#515=ORIENTED_EDGE('',*,*,#400,.T.);
#516=ORIENTED_EDGE('',*,*,#401,.T.);
#517=ORIENTED_EDGE('',*,*,#402,.T.);
#518=ORIENTED_EDGE('',*,*,#403,.F.);
#519=ORIENTED_EDGE('',*,*,#404,.T.);
#520=ORIENTED_EDGE('',*,*,#405,.T.);
#521=ORIENTED_EDGE('',*,*,#406,.T.);
#522=ORIENTED_EDGE('',*,*,#401,.F.);
#523=ORIENTED_EDGE('',*,*,#407,.T.);
#524=ORIENTED_EDGE('',*,*,#408,.T.);
#525=ORIENTED_EDGE('',*,*,#409,.T.);
#526=ORIENTED_EDGE('',*,*,#405,.F.);
#527=ORIENTED_EDGE('',*,*,#410,.T.);
#528=ORIENTED_EDGE('',*,*,#408,.F.);
#529=ORIENTED_EDGE('',*,*,#411,.T.);
#530=ORIENTED_EDGE('',*,*,#403,.T.);
#531=ORIENTED_EDGE('',*,*,#410,.F.);
#532=ORIENTED_EDGE('',*,*,#412,.F.);
#533=ORIENTED_EDGE('',*,*,#413,.F.);
#534=ORIENTED_EDGE('',*,*,#414,.T.);
#535=ORIENTED_EDGE('',*,*,#402,.F.);
#536=ORIENTED_EDGE('',*,*,#415,.F.);
#537=ORIENTED_EDGE('',*,*,#416,.F.);
#538=ORIENTED_EDGE('',*,*,#412,.T.);
#539=ORIENTED_EDGE('',*,*,#400,.F.);
#540=ORIENTED_EDGE('',*,*,#411,.F.);
#541=ORIENTED_EDGE('',*,*,#407,.F.);
#542=ORIENTED_EDGE('',*,*,#404,.F.);
#543=ORIENTED_EDGE('',*,*,#417,.T.);
#544=ORIENTED_EDGE('',*,*,#418,.T.);
#545=ORIENTED_EDGE('',*,*,#419,.T.);
#546=ORIENTED_EDGE('',*,*,#420,.F.);
#547=ORIENTED_EDGE('',*,*,#421,.F.);
#548=ORIENTED_EDGE('',*,*,#422,.F.);
#549=ORIENTED_EDGE('',*,*,#423,.F.);
#550=ORIENTED_EDGE('',*,*,#424,.F.);
#551=ORIENTED_EDGE('',*,*,#425,.T.);
#552=ORIENTED_EDGE('',*,*,#422,.T.);
#553=ORIENTED_EDGE('',*,*,#426,.T.);
#554=ORIENTED_EDGE('',*,*,#427,.T.);
#555=ORIENTED_EDGE('',*,*,#423,.T.);
#556=ORIENTED_EDGE('',*,*,#428,.T.);
#557=ORIENTED_EDGE('',*,*,#418,.F.);
#558=ORIENTED_EDGE('',*,*,#429,.F.);
#559=ORIENTED_EDGE('',*,*,#430,.F.);
#560=ORIENTED_EDGE('',*,*,#431,.F.);
#561=ORIENTED_EDGE('',*,*,#432,.F.);
#562=ORIENTED_EDGE('',*,*,#433,.T.);
#563=ORIENTED_EDGE('',*,*,#430,.T.);
#564=ORIENTED_EDGE('',*,*,#434,.T.);
#565=ORIENTED_EDGE('',*,*,#435,.T.);
#566=ORIENTED_EDGE('',*,*,#436,.T.);
#567=ORIENTED_EDGE('',*,*,#431,.T.);
#568=ORIENTED_EDGE('',*,*,#437,.T.);
#569=ORIENTED_EDGE('',*,*,#438,.T.);
#570=ORIENTED_EDGE('',*,*,#439,.T.);
#571=ORIENTED_EDGE('',*,*,#435,.F.);
#572=ORIENTED_EDGE('',*,*,#440,.T.);
#573=ORIENTED_EDGE('',*,*,#441,.T.);
#574=ORIENTED_EDGE('',*,*,#442,.T.);
#575=ORIENTED_EDGE('',*,*,#438,.F.);
#576=ORIENTED_EDGE('',*,*,#443,.T.);
#577=ORIENTED_EDGE('',*,*,#444,.T.);
#578=ORIENTED_EDGE('',*,*,#445,.T.);
#579=ORIENTED_EDGE('',*,*,#441,.F.);
#580=ORIENTED_EDGE('',*,*,#446,.T.);
#581=ORIENTED_EDGE('',*,*,#444,.F.);
#582=ORIENTED_EDGE('',*,*,#447,.T.);
#583=ORIENTED_EDGE('',*,*,#421,.T.);
#584=ORIENTED_EDGE('',*,*,#448,.T.);
#585=ORIENTED_EDGE('',*,*,#449,.T.);
#586=ORIENTED_EDGE('',*,*,#429,.T.);
#587=ORIENTED_EDGE('',*,*,#450,.T.);
#588=ORIENTED_EDGE('',*,*,#420,.T.);
#589=ORIENTED_EDGE('',*,*,#426,.F.);
#590=ORIENTED_EDGE('',*,*,#447,.F.);
#591=ORIENTED_EDGE('',*,*,#451,.F.);
#592=ORIENTED_EDGE('',*,*,#452,.T.);
#593=ORIENTED_EDGE('',*,*,#446,.F.);
#594=ORIENTED_EDGE('',*,*,#453,.F.);
#595=ORIENTED_EDGE('',*,*,#454,.T.);
#596=ORIENTED_EDGE('',*,*,#451,.T.);
#597=ORIENTED_EDGE('',*,*,#389,.F.);
#598=ORIENTED_EDGE('',*,*,#455,.F.);
#599=ORIENTED_EDGE('',*,*,#456,.F.);
#600=ORIENTED_EDGE('',*,*,#453,.T.);
#601=ORIENTED_EDGE('',*,*,#443,.F.);
#602=ORIENTED_EDGE('',*,*,#457,.F.);
#603=ORIENTED_EDGE('',*,*,#458,.F.);
#604=ORIENTED_EDGE('',*,*,#415,.T.);
#605=ORIENTED_EDGE('',*,*,#406,.F.);
#606=ORIENTED_EDGE('',*,*,#459,.F.);
#607=ORIENTED_EDGE('',*,*,#460,.F.);
#608=ORIENTED_EDGE('',*,*,#398,.T.);
#609=ORIENTED_EDGE('',*,*,#440,.F.);
#610=ORIENTED_EDGE('',*,*,#461,.F.);
#611=ORIENTED_EDGE('',*,*,#462,.T.);
#612=ORIENTED_EDGE('',*,*,#457,.T.);
#613=ORIENTED_EDGE('',*,*,#437,.F.);
#614=ORIENTED_EDGE('',*,*,#433,.F.);
#615=ORIENTED_EDGE('',*,*,#463,.T.);
#616=ORIENTED_EDGE('',*,*,#461,.T.);
#617=ORIENTED_EDGE('',*,*,#436,.F.);
#618=ORIENTED_EDGE('',*,*,#439,.F.);
#619=ORIENTED_EDGE('',*,*,#442,.F.);
#620=ORIENTED_EDGE('',*,*,#445,.F.);
#621=ORIENTED_EDGE('',*,*,#448,.F.);
#622=ORIENTED_EDGE('',*,*,#427,.F.);
#623=ORIENTED_EDGE('',*,*,#417,.F.);
#624=ORIENTED_EDGE('',*,*,#450,.F.);
#625=ORIENTED_EDGE('',*,*,#464,.F.);
#626=ORIENTED_EDGE('',*,*,#465,.F.);
#627=ORIENTED_EDGE('',*,*,#464,.T.);
#628=ORIENTED_EDGE('',*,*,#466,.T.);
#629=ORIENTED_EDGE('',*,*,#467,.T.);
#630=ORIENTED_EDGE('',*,*,#466,.F.);
#631=ORIENTED_EDGE('',*,*,#467,.F.);
#632=ORIENTED_EDGE('',*,*,#468,.T.);
#633=ORIENTED_EDGE('',*,*,#469,.T.);
#634=ORIENTED_EDGE('',*,*,#468,.F.);
#635=ORIENTED_EDGE('',*,*,#465,.T.);
#636=ORIENTED_EDGE('',*,*,#470,.T.);
#637=ORIENTED_EDGE('',*,*,#471,.T.);
#638=ORIENTED_EDGE('',*,*,#470,.F.);
#639=ORIENTED_EDGE('',*,*,#471,.F.);
#640=ORIENTED_EDGE('',*,*,#472,.T.);
#641=ORIENTED_EDGE('',*,*,#473,.T.);
#642=ORIENTED_EDGE('',*,*,#472,.F.);
#643=ORIENTED_EDGE('',*,*,#409,.F.);
#644=ORIENTED_EDGE('',*,*,#414,.F.);
#645=ORIENTED_EDGE('',*,*,#474,.F.);
#646=ORIENTED_EDGE('',*,*,#459,.T.);
#647=ORIENTED_EDGE('',*,*,#392,.F.);
#648=ORIENTED_EDGE('',*,*,#397,.F.);
#649=ORIENTED_EDGE('',*,*,#475,.F.);
#650=ORIENTED_EDGE('',*,*,#455,.T.);
#651=ORIENTED_EDGE('',*,*,#475,.T.);
#652=ORIENTED_EDGE('',*,*,#396,.T.);
#653=ORIENTED_EDGE('',*,*,#399,.T.);
#654=ORIENTED_EDGE('',*,*,#460,.T.);
#655=ORIENTED_EDGE('',*,*,#474,.T.);
#656=ORIENTED_EDGE('',*,*,#413,.T.);
#657=ORIENTED_EDGE('',*,*,#416,.T.);
#658=ORIENTED_EDGE('',*,*,#458,.T.);
#659=ORIENTED_EDGE('',*,*,#462,.F.);
#660=ORIENTED_EDGE('',*,*,#463,.F.);
#661=ORIENTED_EDGE('',*,*,#432,.T.);
#662=ORIENTED_EDGE('',*,*,#476,.T.);
#663=ORIENTED_EDGE('',*,*,#477,.T.);
#664=ORIENTED_EDGE('',*,*,#478,.T.);
#665=ORIENTED_EDGE('',*,*,#424,.T.);
#666=ORIENTED_EDGE('',*,*,#452,.F.);
#667=ORIENTED_EDGE('',*,*,#454,.F.);
#668=ORIENTED_EDGE('',*,*,#456,.T.);
#669=ORIENTED_EDGE('',*,*,#479,.F.);
#670=ORIENTED_EDGE('',*,*,#480,.F.);
#671=ORIENTED_EDGE('',*,*,#473,.F.);
#672=ORIENTED_EDGE('',*,*,#481,.F.);
#673=ORIENTED_EDGE('',*,*,#469,.F.);
#674=ORIENTED_EDGE('',*,*,#482,.F.);
#675=ORIENTED_EDGE('',*,*,#482,.T.);
#676=ORIENTED_EDGE('',*,*,#483,.T.);
#677=ORIENTED_EDGE('',*,*,#480,.T.);
#678=ORIENTED_EDGE('',*,*,#483,.F.);
#679=ORIENTED_EDGE('',*,*,#481,.T.);
#680=ORIENTED_EDGE('',*,*,#484,.T.);
#681=ORIENTED_EDGE('',*,*,#479,.T.);
#682=ORIENTED_EDGE('',*,*,#484,.F.);
#683=ORIENTED_EDGE('',*,*,#449,.F.);
#684=ORIENTED_EDGE('',*,*,#485,.F.);
#685=ORIENTED_EDGE('',*,*,#476,.F.);
#686=ORIENTED_EDGE('',*,*,#434,.F.);
#687=ORIENTED_EDGE('',*,*,#419,.F.);
#688=ORIENTED_EDGE('',*,*,#486,.F.);
#689=ORIENTED_EDGE('',*,*,#477,.F.);
#690=ORIENTED_EDGE('',*,*,#485,.T.);
#691=ORIENTED_EDGE('',*,*,#425,.F.);
#692=ORIENTED_EDGE('',*,*,#478,.F.);
#693=ORIENTED_EDGE('',*,*,#486,.T.);
#694=ORIENTED_EDGE('',*,*,#428,.F.);
#695=PLANE('',#779);
#696=PLANE('',#780);
#697=PLANE('',#781);
#698=PLANE('',#782);
#699=PLANE('',#783);
#700=PLANE('',#784);
#701=PLANE('',#785);
#702=PLANE('',#786);
#703=PLANE('',#787);
#704=PLANE('',#788);
#705=PLANE('',#789);
#706=PLANE('',#790);
#707=PLANE('',#791);
#708=PLANE('',#792);
#709=PLANE('',#793);
#710=PLANE('',#794);
#711=PLANE('',#795);
#712=PLANE('',#796);
#713=PLANE('',#797);
#714=PLANE('',#798);
#715=PLANE('',#799);
#716=PLANE('',#803);
#717=PLANE('',#807);
#718=PLANE('',#808);
#719=PLANE('',#809);
#720=PLANE('',#812);
#721=PLANE('',#815);
#722=PLANE('',#816);
#723=PLANE('',#827);
#724=PLANE('',#828);
#725=PLANE('',#829);
#726=PLANE('',#832);
#727=PLANE('',#834);
#728=PLANE('',#838);
#729=PLANE('',#839);
#730=PLANE('',#840);
#731=ADVANCED_FACE('',(#47),#695,.T.);
#732=ADVANCED_FACE('',(#48),#696,.T.);
#733=ADVANCED_FACE('',(#49),#697,.T.);
#734=ADVANCED_FACE('',(#50),#698,.T.);
#735=ADVANCED_FACE('',(#51),#699,.T.);
#736=ADVANCED_FACE('',(#52),#700,.T.);
#737=ADVANCED_FACE('',(#53),#701,.T.);
#738=ADVANCED_FACE('',(#54),#702,.T.);
#739=ADVANCED_FACE('',(#55),#703,.T.);
#740=ADVANCED_FACE('',(#56),#704,.T.);
#741=ADVANCED_FACE('',(#57),#705,.T.);
#742=ADVANCED_FACE('',(#58),#706,.T.);
#743=ADVANCED_FACE('',(#59),#707,.T.);
#744=ADVANCED_FACE('',(#60),#708,.T.);
#745=ADVANCED_FACE('',(#61),#709,.T.);
#746=ADVANCED_FACE('',(#62),#710,.T.);
#747=ADVANCED_FACE('',(#63),#711,.T.);
#748=ADVANCED_FACE('',(#64),#712,.T.);
#749=ADVANCED_FACE('',(#65),#713,.T.);
#750=ADVANCED_FACE('',(#66),#714,.T.);
#751=ADVANCED_FACE('',(#67),#715,.T.);
#752=ADVANCED_FACE('',(#68),#43,.T.);
#753=ADVANCED_FACE('',(#69),#716,.T.);
#754=ADVANCED_FACE('',(#70),#44,.T.);
#755=ADVANCED_FACE('',(#71),#717,.T.);
#756=ADVANCED_FACE('',(#72),#718,.T.);
#757=ADVANCED_FACE('',(#73),#719,.T.);
#758=ADVANCED_FACE('',(#74),#21,.T.);
#759=ADVANCED_FACE('',(#75),#720,.T.);
#760=ADVANCED_FACE('',(#76),#22,.T.);
#761=ADVANCED_FACE('',(#77),#721,.T.);
#762=ADVANCED_FACE('',(#78,#15,#16),#722,.T.);
#763=ADVANCED_FACE('',(#79),#45,.F.);
#764=ADVANCED_FACE('',(#80),#23,.F.);
#765=ADVANCED_FACE('',(#81),#46,.F.);
#766=ADVANCED_FACE('',(#82),#24,.F.);
#767=ADVANCED_FACE('',(#83),#723,.T.);
#768=ADVANCED_FACE('',(#84),#724,.T.);
#769=ADVANCED_FACE('',(#85,#17,#18),#725,.F.);
#770=ADVANCED_FACE('',(#86,#19),#726,.T.);
#771=ADVANCED_FACE('',(#87,#20),#727,.T.);
#772=ADVANCED_FACE('',(#88),#25,.F.);
#773=ADVANCED_FACE('',(#89),#26,.F.);
#774=ADVANCED_FACE('',(#90),#728,.T.);
#775=ADVANCED_FACE('',(#91),#729,.T.);
#776=ADVANCED_FACE('',(#92),#730,.T.);
#777=CLOSED_SHELL('',(#731,#732,#733,#734,#735,#736,#737,#738,#739,#740,
#741,#742,#743,#744,#745,#746,#747,#748,#749,#750,#751,#752,#753,#754,#755,
#756,#757,#758,#759,#760,#761,#762,#763,#764,#765,#766,#767,#768,#769,#770,
#771,#772,#773,#774,#775,#776));
#778=AXIS2_PLACEMENT_3D('',#1055,#841,#842);
#779=AXIS2_PLACEMENT_3D('',#1056,#843,#844);
#780=AXIS2_PLACEMENT_3D('',#1065,#849,#850);
#781=AXIS2_PLACEMENT_3D('',#1071,#854,#855);
#782=AXIS2_PLACEMENT_3D('',#1077,#859,#860);
#783=AXIS2_PLACEMENT_3D('',#1080,#863,#864);
#784=AXIS2_PLACEMENT_3D('',#1086,#868,#869);
#785=AXIS2_PLACEMENT_3D('',#1090,#872,#873);
#786=AXIS2_PLACEMENT_3D('',#1091,#874,#875);
#787=AXIS2_PLACEMENT_3D('',#1100,#880,#881);
#788=AXIS2_PLACEMENT_3D('',#1106,#885,#886);
#789=AXIS2_PLACEMENT_3D('',#1112,#890,#891);
#790=AXIS2_PLACEMENT_3D('',#1115,#894,#895);
#791=AXIS2_PLACEMENT_3D('',#1121,#899,#900);
#792=AXIS2_PLACEMENT_3D('',#1125,#903,#904);
#793=AXIS2_PLACEMENT_3D('',#1126,#905,#906);
#794=AXIS2_PLACEMENT_3D('',#1135,#911,#912);
#795=AXIS2_PLACEMENT_3D('',#1142,#916,#917);
#796=AXIS2_PLACEMENT_3D('',#1148,#921,#922);
#797=AXIS2_PLACEMENT_3D('',#1151,#925,#926);
#798=AXIS2_PLACEMENT_3D('',#1158,#930,#931);
#799=AXIS2_PLACEMENT_3D('',#1164,#935,#936);
#800=AXIS2_PLACEMENT_3D('',#1170,#940,#941);
#801=AXIS2_PLACEMENT_3D('',#1174,#943,#944);
#802=AXIS2_PLACEMENT_3D('',#1175,#945,#946);
#803=AXIS2_PLACEMENT_3D('',#1176,#947,#948);
#804=AXIS2_PLACEMENT_3D('',#1182,#952,#953);
#805=AXIS2_PLACEMENT_3D('',#1186,#955,#956);
#806=AXIS2_PLACEMENT_3D('',#1187,#957,#958);
#807=AXIS2_PLACEMENT_3D('',#1188,#959,#960);
#808=AXIS2_PLACEMENT_3D('',#1191,#963,#964);
#809=AXIS2_PLACEMENT_3D('',#1194,#967,#968);
#810=AXIS2_PLACEMENT_3D('',#1198,#971,#972);
#811=AXIS2_PLACEMENT_3D('',#1201,#974,#975);
#812=AXIS2_PLACEMENT_3D('',#1202,#976,#977);
#813=AXIS2_PLACEMENT_3D('',#1212,#984,#985);
#814=AXIS2_PLACEMENT_3D('',#1215,#987,#988);
#815=AXIS2_PLACEMENT_3D('',#1216,#989,#990);
#816=AXIS2_PLACEMENT_3D('',#1218,#992,#993);
#817=AXIS2_PLACEMENT_3D('',#1220,#994,#995);
#818=AXIS2_PLACEMENT_3D('',#1222,#996,#997);
#819=AXIS2_PLACEMENT_3D('',#1223,#998,#999);
#820=AXIS2_PLACEMENT_3D('',#1226,#1001,#1002);
#821=AXIS2_PLACEMENT_3D('',#1227,#1003,#1004);
#822=AXIS2_PLACEMENT_3D('',#1230,#1006,#1007);
#823=AXIS2_PLACEMENT_3D('',#1231,#1008,#1009);
#824=AXIS2_PLACEMENT_3D('',#1234,#1011,#1012);
#825=AXIS2_PLACEMENT_3D('',#1235,#1013,#1014);
#826=AXIS2_PLACEMENT_3D('',#1238,#1016,#1017);
#827=AXIS2_PLACEMENT_3D('',#1239,#1018,#1019);
#828=AXIS2_PLACEMENT_3D('',#1241,#1021,#1022);
#829=AXIS2_PLACEMENT_3D('',#1243,#1024,#1025);
#830=AXIS2_PLACEMENT_3D('',#1250,#1029,#1030);
#831=AXIS2_PLACEMENT_3D('',#1252,#1031,#1032);
#832=AXIS2_PLACEMENT_3D('',#1253,#1033,#1034);
#833=AXIS2_PLACEMENT_3D('',#1255,#1035,#1036);
#834=AXIS2_PLACEMENT_3D('',#1256,#1037,#1038);
#835=AXIS2_PLACEMENT_3D('',#1258,#1039,#1040);
#836=AXIS2_PLACEMENT_3D('',#1259,#1041,#1042);
#837=AXIS2_PLACEMENT_3D('',#1261,#1044,#1045);
#838=AXIS2_PLACEMENT_3D('',#1263,#1047,#1048);
#839=AXIS2_PLACEMENT_3D('',#1265,#1050,#1051);
#840=AXIS2_PLACEMENT_3D('',#1267,#1053,#1054);
#841=DIRECTION('axis',(0.,0.,1.));
#842=DIRECTION('refdir',(1.,0.,0.));
#843=DIRECTION('center_axis',(-4.56754169798882E-15,-0.707106781186541,
0.707106781186554));
#844=DIRECTION('ref_axis',(1.,0.,6.45947941600037E-15));
#845=DIRECTION('',(-1.,6.45947941600049E-15,0.));
#846=DIRECTION('',(-0.577350269189629,-0.577350269189629,-0.577350269189619));
#847=DIRECTION('',(1.,-6.45947941600049E-15,0.));
#848=DIRECTION('',(0.577350269189657,-0.577350269189616,-0.577350269189605));
#849=DIRECTION('center_axis',(-0.707106781186529,-7.19126316954356E-15,
0.707106781186566));
#850=DIRECTION('ref_axis',(0.707106781186566,0.,0.707106781186529));
#851=DIRECTION('',(-1.01699819049629E-14,1.,0.));
#852=DIRECTION('',(-0.57735026918967,0.577350269189609,-0.577350269189598));
#853=DIRECTION('',(1.01699819049629E-14,-1.,0.));
#854=DIRECTION('center_axis',(0.,0.707106781186541,0.707106781186554));
#855=DIRECTION('ref_axis',(1.,0.,0.));
#856=DIRECTION('',(1.,0.,0.));
#857=DIRECTION('',(0.577350269189643,0.577350269189622,-0.577350269189612));
#858=DIRECTION('',(-1.,0.,0.));
#859=DIRECTION('center_axis',(0.707106781186529,5.59636915966467E-15,0.707106781186566));
#860=DIRECTION('ref_axis',(0.707106781186566,0.,-0.707106781186529));
#861=DIRECTION('',(-7.91446116564452E-15,1.,0.));
#862=DIRECTION('',(7.91446116564452E-15,-1.,0.));
#863=DIRECTION('center_axis',(1.,7.91446116564452E-15,0.));
#864=DIRECTION('ref_axis',(-7.91446116564452E-15,1.,0.));
#865=DIRECTION('',(0.,0.,1.));
#866=DIRECTION('',(7.91446116564452E-15,-1.,0.));
#867=DIRECTION('',(0.,0.,1.));
#868=DIRECTION('center_axis',(-6.45947941600049E-15,-1.,0.));
#869=DIRECTION('ref_axis',(1.,-6.45947941600049E-15,0.));
#870=DIRECTION('',(0.,0.,1.));
#871=DIRECTION('',(-1.,6.45947941600049E-15,0.));
#872=DIRECTION('center_axis',(0.,0.,1.));
#873=DIRECTION('ref_axis',(1.,0.,0.));
#874=DIRECTION('center_axis',(0.,-0.707106781186541,0.707106781186554));
#875=DIRECTION('ref_axis',(1.,0.,0.));
#876=DIRECTION('',(-1.,0.,0.));
#877=DIRECTION('',(-0.577350269189752,-0.577350269189568,-0.577350269189557));
#878=DIRECTION('',(1.,0.,0.));
#879=DIRECTION('',(0.577350269189643,-0.577350269189622,-0.577350269189612));
#880=DIRECTION('center_axis',(-0.707106781186554,-7.19126316954381E-15,
0.707106781186541));
#881=DIRECTION('ref_axis',(0.707106781186541,0.,0.707106781186554));
#882=DIRECTION('',(-1.01699819049629E-14,1.,0.));
#883=DIRECTION('',(-0.577350269189616,0.577350269189636,-0.577350269189626));
#884=DIRECTION('',(1.01699819049629E-14,-1.,0.));
#885=DIRECTION('center_axis',(0.,0.707106781186541,0.707106781186554));
#886=DIRECTION('ref_axis',(1.,0.,0.));
#887=DIRECTION('',(1.,0.,0.));
#888=DIRECTION('',(0.577350269189629,0.577350269189629,-0.577350269189619));
#889=DIRECTION('',(-1.,0.,0.));
#890=DIRECTION('center_axis',(0.707106781186541,5.59636915966477E-15,0.707106781186554));
#891=DIRECTION('ref_axis',(0.707106781186554,0.,-0.707106781186541));
#892=DIRECTION('',(-7.91446116564452E-15,1.,0.));
#893=DIRECTION('',(7.91446116564452E-15,-1.,0.));
#894=DIRECTION('center_axis',(1.,7.91446116564452E-15,0.));
#895=DIRECTION('ref_axis',(-7.91446116564452E-15,1.,0.));
#896=DIRECTION('',(0.,0.,1.));
#897=DIRECTION('',(7.91446116564452E-15,-1.,0.));
#898=DIRECTION('',(0.,0.,1.));
#899=DIRECTION('center_axis',(0.,-1.,0.));
#900=DIRECTION('ref_axis',(1.,0.,0.));
#901=DIRECTION('',(0.,0.,1.));
#902=DIRECTION('',(-1.,0.,0.));
#903=DIRECTION('center_axis',(0.,0.,1.));
#904=DIRECTION('ref_axis',(1.,0.,0.));
#905=DIRECTION('center_axis',(0.707106781186541,0.,-0.707106781186554));
#906=DIRECTION('ref_axis',(-0.707106781186554,0.,-0.707106781186541));
#907=DIRECTION('',(0.,1.,0.));
#908=DIRECTION('',(0.577350269189643,0.577350269189602,0.577350269189633));
#909=DIRECTION('',(0.,-1.,0.));
#910=DIRECTION('',(0.577350269189916,-0.577350269189465,0.577350269189496));
#911=DIRECTION('center_axis',(0.235702260395516,0.235702260395516,-0.942809041582063));
#912=DIRECTION('ref_axis',(-0.970142500145332,0.,-0.242535625036333));
#913=DIRECTION('',(-0.30151134457777,-0.904534033733288,-0.301511344577765));
#914=DIRECTION('',(-0.707106781186547,0.707106781186547,0.));
#915=DIRECTION('',(0.904534033733298,0.301511344577745,0.301511344577761));
#916=DIRECTION('center_axis',(0.707106781186548,0.707106781186548,0.));
#917=DIRECTION('ref_axis',(0.,0.,-1.));
#918=DIRECTION('',(0.707106781186548,-0.707106781186548,0.));
#919=DIRECTION('',(0.,0.,-1.));
#920=DIRECTION('',(0.,0.,1.));
#921=DIRECTION('center_axis',(0.,0.707106781186566,-0.707106781186529));
#922=DIRECTION('ref_axis',(-1.,0.,0.));
#923=DIRECTION('',(-1.,0.,0.));
#924=DIRECTION('',(1.,0.,0.));
#925=DIRECTION('center_axis',(0.235702260395457,-0.235702260395549,-0.94280904158207));
#926=DIRECTION('ref_axis',(-0.970142500145347,0.,-0.242535625036274));
#927=DIRECTION('',(-0.904534033733345,0.301511344577653,-0.301511344577712));
#928=DIRECTION('',(0.707106781186686,0.707106781186409,0.));
#929=DIRECTION('',(0.301511344577782,-0.904534033733281,0.301511344577776));
#930=DIRECTION('center_axis',(0.707106781186409,-0.707106781186686,0.));
#931=DIRECTION('ref_axis',(0.,0.,-1.));
#932=DIRECTION('',(-0.707106781186686,-0.707106781186409,0.));
#933=DIRECTION('',(0.,0.,-1.));
#934=DIRECTION('',(0.,0.,1.));
#935=DIRECTION('center_axis',(0.707106781186541,0.,-0.707106781186554));
#936=DIRECTION('ref_axis',(-0.707106781186554,0.,-0.707106781186541));
#937=DIRECTION('',(-0.707106781186554,0.,-0.707106781186541));
#938=DIRECTION('',(0.,1.,0.));
#939=DIRECTION('',(0.,-1.,0.));
#940=DIRECTION('center_axis',(0.,0.,1.));
#941=DIRECTION('ref_axis',(1.,0.,0.));
#942=DIRECTION('',(0.707106781186504,1.00485917355768E-13,-0.707106781186592));
#943=DIRECTION('center_axis',(0.,0.,1.));
#944=DIRECTION('ref_axis',(1.,0.,0.));
#945=DIRECTION('center_axis',(0.,0.,-1.));
#946=DIRECTION('ref_axis',(1.,0.,0.));
#947=DIRECTION('center_axis',(-0.707106781186541,-7.19126316954369E-15,
-0.707106781186554));
#948=DIRECTION('ref_axis',(-0.707106781186554,0.,0.707106781186541));
#949=DIRECTION('',(0.707106781186529,0.,-0.707106781186566));
#950=DIRECTION('',(1.01699819049629E-14,-1.,0.));
#951=DIRECTION('',(-1.01699819049629E-14,1.,0.));
#952=DIRECTION('center_axis',(0.,0.,1.));
#953=DIRECTION('ref_axis',(1.,0.,0.));
#954=DIRECTION('',(-0.707106781187989,5.88575460325079E-7,-0.707106781184861));
#955=DIRECTION('center_axis',(0.,0.,1.));
#956=DIRECTION('ref_axis',(1.,0.,0.));
#957=DIRECTION('center_axis',(0.,0.,-1.));
#958=DIRECTION('ref_axis',(1.,0.,0.));
#959=DIRECTION('center_axis',(0.707106781186541,0.,-0.707106781186554));
#960=DIRECTION('ref_axis',(-0.707106781186554,0.,-0.707106781186541));
#961=DIRECTION('',(0.,-1.,0.));
#962=DIRECTION('',(0.,1.,0.));
#963=DIRECTION('center_axis',(1.67476528926323E-14,-0.707106781186566,-0.707106781186529));
#964=DIRECTION('ref_axis',(-1.,0.,-2.36847578586782E-14));
#965=DIRECTION('',(-1.,-2.3684757858677E-14,0.));
#966=DIRECTION('',(1.,2.3684757858677E-14,0.));
#967=DIRECTION('center_axis',(1.,0.,0.));
#968=DIRECTION('ref_axis',(0.,-1.,0.));
#969=DIRECTION('',(0.,0.,-1.));
#970=DIRECTION('',(0.,-1.,0.));
#971=DIRECTION('center_axis',(0.,0.,-1.));
#972=DIRECTION('ref_axis',(1.,0.,0.));
#973=DIRECTION('',(0.,0.,-1.));
#974=DIRECTION('center_axis',(0.,0.,-1.));
#975=DIRECTION('ref_axis',(1.,0.,0.));
#976=DIRECTION('center_axis',(-1.,-1.01699819049629E-14,0.));
#977=DIRECTION('ref_axis',(-1.01699819049629E-14,1.,0.));
#978=DIRECTION('',(0.,0.,1.));
#979=DIRECTION('',(1.01699819049629E-14,-1.,0.));
#980=DIRECTION('',(0.,0.,-1.));
#981=DIRECTION('',(1.01699819049629E-14,-1.,0.));
#982=DIRECTION('',(0.,0.,1.));
#983=DIRECTION('',(1.01699819049629E-14,-1.,0.));
#984=DIRECTION('center_axis',(0.,0.,-1.));
#985=DIRECTION('ref_axis',(1.,0.,0.));
#986=DIRECTION('',(0.,0.,-1.));
#987=DIRECTION('center_axis',(0.,0.,-1.));
#988=DIRECTION('ref_axis',(1.,0.,0.));
#989=DIRECTION('center_axis',(1.,0.,0.));
#990=DIRECTION('ref_axis',(0.,-1.,0.));
#991=DIRECTION('',(0.,-1.,0.));
#992=DIRECTION('center_axis',(0.,0.,-1.));
#993=DIRECTION('ref_axis',(1.,0.,0.));
#994=DIRECTION('center_axis',(0.,0.,-1.));
#995=DIRECTION('ref_axis',(1.,0.,0.));
#996=DIRECTION('center_axis',(0.,0.,-1.));
#997=DIRECTION('ref_axis',(1.,0.,0.));
#998=DIRECTION('center_axis',(0.,0.,-1.));
#999=DIRECTION('ref_axis',(1.,0.,0.));
#1000=DIRECTION('',(0.707106781186554,-8.65956056235501E-17,0.707106781186541));
#1001=DIRECTION('center_axis',(0.,0.,1.));
#1002=DIRECTION('ref_axis',(1.,0.,0.));
#1003=DIRECTION('center_axis',(0.,0.,1.));
#1004=DIRECTION('ref_axis',(1.,0.,0.));
#1005=DIRECTION('',(0.,0.,1.));
#1006=DIRECTION('center_axis',(0.,0.,1.));
#1007=DIRECTION('ref_axis',(1.,0.,0.));
#1008=DIRECTION('center_axis',(0.,0.,-1.));
#1009=DIRECTION('ref_axis',(1.,0.,0.));
#1010=DIRECTION('',(0.707106781186554,-8.65956056235501E-17,0.707106781186541));
#1011=DIRECTION('center_axis',(0.,0.,1.));
#1012=DIRECTION('ref_axis',(1.,0.,0.));
#1013=DIRECTION('center_axis',(0.,0.,1.));
#1014=DIRECTION('ref_axis',(1.,0.,0.));
#1015=DIRECTION('',(0.,0.,1.));
#1016=DIRECTION('center_axis',(0.,0.,1.));
#1017=DIRECTION('ref_axis',(1.,0.,0.));
#1018=DIRECTION('center_axis',(0.,1.,0.));
#1019=DIRECTION('ref_axis',(-1.,0.,0.));
#1020=DIRECTION('',(1.,0.,0.));
#1021=DIRECTION('center_axis',(0.,1.,0.));
#1022=DIRECTION('ref_axis',(-1.,0.,0.));
#1023=DIRECTION('',(1.,0.,0.));
#1024=DIRECTION('center_axis',(0.,0.,-1.));
#1025=DIRECTION('ref_axis',(1.,0.,0.));
#1026=DIRECTION('',(1.,2.3684757858677E-14,0.));
#1027=DIRECTION('',(0.,1.,0.));
#1028=DIRECTION('',(-1.,0.,0.));
#1029=DIRECTION('center_axis',(0.,0.,1.));
#1030=DIRECTION('ref_axis',(1.,0.,0.));
#1031=DIRECTION('center_axis',(0.,0.,1.));
#1032=DIRECTION('ref_axis',(1.,0.,0.));
#1033=DIRECTION('center_axis',(0.,0.,-1.));
#1034=DIRECTION('ref_axis',(1.,0.,0.));
#1035=DIRECTION('center_axis',(0.,0.,-1.));
#1036=DIRECTION('ref_axis',(1.,0.,0.));
#1037=DIRECTION('center_axis',(0.,0.,-1.));
#1038=DIRECTION('ref_axis',(1.,0.,0.));
#1039=DIRECTION('center_axis',(0.,0.,-1.));
#1040=DIRECTION('ref_axis',(1.,0.,0.));
#1041=DIRECTION('center_axis',(0.,0.,-1.));
#1042=DIRECTION('ref_axis',(1.,0.,0.));
#1043=DIRECTION('',(0.,0.,1.));
#1044=DIRECTION('center_axis',(0.,0.,-1.));
#1045=DIRECTION('ref_axis',(1.,0.,0.));
#1046=DIRECTION('',(0.,0.,1.));
#1047=DIRECTION('center_axis',(2.3684757858677E-14,-1.,0.));
#1048=DIRECTION('ref_axis',(-1.,-2.3684757858677E-14,0.));
#1049=DIRECTION('',(0.,0.,-1.));
#1050=DIRECTION('center_axis',(1.,0.,0.));
#1051=DIRECTION('ref_axis',(0.,-1.,0.));
#1052=DIRECTION('',(0.,0.,-1.));
#1053=DIRECTION('center_axis',(0.,1.,0.));
#1054=DIRECTION('ref_axis',(1.,0.,0.));
#1055=CARTESIAN_POINT('',(0.,0.,0.));
#1056=CARTESIAN_POINT('Origin',(142.375001907471,202.025003576278,27.7499995232093));
#1057=CARTESIAN_POINT('',(146.000001907471,202.275003576278,27.9999995232093));
#1058=CARTESIAN_POINT('',(141.500001907471,202.275003576278,27.9999995232093));
#1059=CARTESIAN_POINT('',(142.375001907471,202.275003576278,27.9999995232093));
#1060=CARTESIAN_POINT('',(141.000001907471,201.775003576278,27.4999995232093));
#1061=CARTESIAN_POINT('',(141.500001907471,202.275003576278,27.9999995232093));
#1062=CARTESIAN_POINT('',(146.500001907471,201.775003576278,27.4999995232093));
#1063=CARTESIAN_POINT('',(142.375001907471,201.775003576278,27.4999995232093));
#1064=CARTESIAN_POINT('',(146.000001907471,202.275003576278,27.9999995232093));
#1065=CARTESIAN_POINT('Origin',(141.250001907471,194.562503576278,27.7499995232093));
#1066=CARTESIAN_POINT('',(141.500001907471,207.125003576279,27.9999995232093));
#1067=CARTESIAN_POINT('',(141.500001907471,194.562503576278,27.9999995232093));
#1068=CARTESIAN_POINT('',(141.000001907471,207.625003576279,27.4999995232093));
#1069=CARTESIAN_POINT('',(141.500001907471,207.125003576279,27.9999995232093));
#1070=CARTESIAN_POINT('',(141.000001907471,194.562503576278,27.4999995232093));
#1071=CARTESIAN_POINT('Origin',(145.125001907471,207.375003576279,27.7499995232093));
#1072=CARTESIAN_POINT('',(146.000001907471,207.125003576279,27.9999995232093));
#1073=CARTESIAN_POINT('',(145.125001907471,207.125003576279,27.9999995232093));
#1074=CARTESIAN_POINT('',(146.500001907471,207.625003576279,27.4999995232093));
#1075=CARTESIAN_POINT('',(146.000001907471,207.125003576279,27.9999995232093));
#1076=CARTESIAN_POINT('',(145.125001907471,207.625003576279,27.4999995232093));
#1077=CARTESIAN_POINT('Origin',(146.250001907471,203.237503576278,27.7499995232093));
#1078=CARTESIAN_POINT('',(146.500001907471,203.237503576278,27.4999995232093));
#1079=CARTESIAN_POINT('',(146.000001907471,203.237503576278,27.9999995232093));
#1080=CARTESIAN_POINT('Origin',(146.500001907471,201.775003576278,24.2000001192093));
#1081=CARTESIAN_POINT('',(146.500001907471,201.775003576278,24.2000001192093));
#1082=CARTESIAN_POINT('',(146.500001907471,201.775003576278,24.2000001192093));
#1083=CARTESIAN_POINT('',(146.500001907471,207.625003576279,24.2000001192093));
#1084=CARTESIAN_POINT('',(146.500001907471,199.650003576278,24.2000001192093));
#1085=CARTESIAN_POINT('',(146.500001907471,207.625003576279,24.2000001192093));
#1086=CARTESIAN_POINT('Origin',(141.000001907471,201.775003576278,24.2000001192093));
#1087=CARTESIAN_POINT('',(141.000001907471,201.775003576278,24.2000001192093));
#1088=CARTESIAN_POINT('',(141.000001907471,201.775003576278,24.2000001192093));
#1089=CARTESIAN_POINT('',(142.750001907471,201.775003576278,24.2000001192093));
#1090=CARTESIAN_POINT('Origin',(143.750001907471,204.700003576279,27.9999995232093));
#1091=CARTESIAN_POINT('Origin',(142.375001907471,187.675003576279,27.7499995232093));
#1092=CARTESIAN_POINT('',(146.000001907472,187.925003576279,27.9999995232093));
#1093=CARTESIAN_POINT('',(141.500001907471,187.925003576279,27.9999995232093));
#1094=CARTESIAN_POINT('',(142.375001907471,187.925003576279,27.9999995232093));
#1095=CARTESIAN_POINT('',(141.000001907471,187.425003576279,27.4999995232093));
#1096=CARTESIAN_POINT('',(141.500001907471,187.925003576279,27.9999995232093));
#1097=CARTESIAN_POINT('',(146.500001907472,187.425003576279,27.4999995232093));
#1098=CARTESIAN_POINT('',(142.375001907471,187.425003576279,27.4999995232093));
#1099=CARTESIAN_POINT('',(146.000001907472,187.925003576279,27.9999995232093));
#1100=CARTESIAN_POINT('Origin',(141.250001907471,187.387503576278,27.7499995232093));
#1101=CARTESIAN_POINT('',(141.500001907471,192.775003576278,27.9999995232093));
#1102=CARTESIAN_POINT('',(141.500001907471,187.387503576278,27.9999995232093));
#1103=CARTESIAN_POINT('',(141.000001907471,193.275003576278,27.4999995232093));
#1104=CARTESIAN_POINT('',(141.500001907471,192.775003576278,27.9999995232093));
#1105=CARTESIAN_POINT('',(141.000001907471,187.387503576278,27.4999995232093));
#1106=CARTESIAN_POINT('Origin',(145.125001907471,193.025003576278,27.7499995232093));
#1107=CARTESIAN_POINT('',(146.000001907472,192.775003576278,27.9999995232093));
#1108=CARTESIAN_POINT('',(145.125001907471,192.775003576278,27.9999995232093));
#1109=CARTESIAN_POINT('',(146.500001907472,193.275003576278,27.4999995232093));
#1110=CARTESIAN_POINT('',(146.000001907472,192.775003576278,27.9999995232093));
#1111=CARTESIAN_POINT('',(145.125001907471,193.275003576278,27.4999995232093));
#1112=CARTESIAN_POINT('Origin',(146.250001907472,188.887503576279,27.7499995232093));
#1113=CARTESIAN_POINT('',(146.500001907472,188.887503576279,27.4999995232093));
#1114=CARTESIAN_POINT('',(146.000001907472,188.887503576279,27.9999995232093));
#1115=CARTESIAN_POINT('Origin',(146.500001907472,187.425003576279,24.2000001192093));
#1116=CARTESIAN_POINT('',(146.500001907472,187.425003576278,24.2000001192093));
#1117=CARTESIAN_POINT('',(146.500001907472,187.425003576279,24.2000001192093));
#1118=CARTESIAN_POINT('',(146.500001907472,193.275003576278,24.2000001192093));
#1119=CARTESIAN_POINT('',(146.500001907472,192.475003576279,24.2000001192093));
#1120=CARTESIAN_POINT('',(146.500001907472,193.275003576278,24.2000001192093));
#1121=CARTESIAN_POINT('Origin',(141.000001907471,187.425003576279,24.2000001192093));
#1122=CARTESIAN_POINT('',(141.000001907471,187.425003576279,24.2000001192093));
#1123=CARTESIAN_POINT('',(141.000001907471,187.425003576279,24.2000001192093));
#1124=CARTESIAN_POINT('',(142.750001907471,187.425003576279,24.2000001192093));
#1125=CARTESIAN_POINT('Origin',(143.750001907471,190.350003576278,27.9999995232093));
#1126=CARTESIAN_POINT('Origin',(147.875001907471,202.575003576279,20.8250001192093));
#1127=CARTESIAN_POINT('',(147.750001907471,187.675003576278,20.7000001192093));
#1128=CARTESIAN_POINT('',(147.750001907471,207.375003576279,20.7000001192093));
#1129=CARTESIAN_POINT('',(147.750001907471,202.575003576279,20.7000001192093));
#1130=CARTESIAN_POINT('',(148.000001907471,207.625003576279,20.9500001192093));
#1131=CARTESIAN_POINT('',(147.750001907471,207.375003576279,20.7000001192093));
#1132=CARTESIAN_POINT('',(148.000001907471,187.425003576278,20.9500001192093));
#1133=CARTESIAN_POINT('',(148.000001907471,202.575003576279,20.9500001192093));
#1134=CARTESIAN_POINT('',(147.750001907471,187.675003576278,20.7000001192093));
#1135=CARTESIAN_POINT('Origin',(147.000001907471,207.625003576279,20.9500001192093));
#1136=CARTESIAN_POINT('',(146.500001907471,208.125003576279,20.9500001192093));
#1137=CARTESIAN_POINT('',(146.250001907471,207.375003576279,20.7000001192093));
#1138=CARTESIAN_POINT('',(146.500001907471,208.125003576279,20.9500001192093));
#1139=CARTESIAN_POINT('',(147.000001907471,207.625003576279,20.9500001192093));
#1140=CARTESIAN_POINT('',(147.000001907471,207.625003576279,20.9500001192093));
#1141=CARTESIAN_POINT('',(146.250001907471,207.375003576279,20.7000001192093));
#1142=CARTESIAN_POINT('Origin',(146.750001907471,207.875003576279,24.2000001192093));
#1143=CARTESIAN_POINT('',(147.000001907471,207.625003576279,24.2000001192093));
#1144=CARTESIAN_POINT('',(146.500001907471,208.125003576279,24.2000001192093));
#1145=CARTESIAN_POINT('',(148.775001907471,205.850003576279,24.2000001192093));
#1146=CARTESIAN_POINT('',(147.000001907471,207.625003576279,24.2000001192093));
#1147=CARTESIAN_POINT('',(146.500001907471,208.125003576279,24.2000001192093));
#1148=CARTESIAN_POINT('Origin',(145.500001907471,207.500003576279,20.8250001192093));
#1149=CARTESIAN_POINT('',(145.500001907471,207.375003576279,20.7000001192093));
#1150=CARTESIAN_POINT('',(145.500001907471,207.625003576279,20.9500001192093));
#1151=CARTESIAN_POINT('Origin',(146.500001907471,186.925003576278,20.9500001192093));
#1152=CARTESIAN_POINT('',(147.000001907472,187.425003576278,20.9500001192093));
#1153=CARTESIAN_POINT('',(146.250001907471,187.675003576278,20.7000001192093));
#1154=CARTESIAN_POINT('',(147.000001907472,187.425003576278,20.9500001192093));
#1155=CARTESIAN_POINT('',(146.500001907471,186.925003576278,20.9500001192093));
#1156=CARTESIAN_POINT('',(146.500001907471,186.925003576278,20.9500001192093));
#1157=CARTESIAN_POINT('',(146.250001907471,187.675003576278,20.7000001192093));
#1158=CARTESIAN_POINT('Origin',(146.750001907472,187.175003576278,24.2000001192093));
#1159=CARTESIAN_POINT('',(146.500001907471,186.925003576278,24.2000001192093));
#1160=CARTESIAN_POINT('',(147.000001907472,187.425003576278,24.2000001192093));
#1161=CARTESIAN_POINT('',(148.775001907471,189.200003576277,24.2000001192093));
#1162=CARTESIAN_POINT('',(146.500001907471,186.925003576278,24.2000001192093));
#1163=CARTESIAN_POINT('',(147.000001907472,187.425003576278,24.2000001192093));
#1164=CARTESIAN_POINT('Origin',(146.375001907471,192.475003576278,20.8250001192093));
#1165=CARTESIAN_POINT('',(146.500001907471,184.425003576278,20.9500001192093));
#1166=CARTESIAN_POINT('',(146.250001907471,184.425003576278,20.7000001192093));
#1167=CARTESIAN_POINT('',(146.500001907471,184.425003576278,20.9500001192093));
#1168=CARTESIAN_POINT('',(146.250001907471,192.475003576278,20.7000001192093));
#1169=CARTESIAN_POINT('',(146.500001907471,192.475003576278,20.9500001192093));
#1170=CARTESIAN_POINT('Origin',(143.750001907471,184.425003576278,20.8250001192093));
#1171=CARTESIAN_POINT('',(141.000001907471,184.425003576278,20.9500001192093));
#1172=CARTESIAN_POINT('',(141.250001907471,184.425003576278,20.7000001192093));
#1173=CARTESIAN_POINT('',(141.000001907471,184.425003576278,20.9500001192093));
#1174=CARTESIAN_POINT('Origin',(143.750001907471,184.425003576278,20.7000001192093));
#1175=CARTESIAN_POINT('Origin',(143.750001907471,184.425003576278,20.9500001192093));
#1176=CARTESIAN_POINT('Origin',(141.125001907471,190.975003576278,20.8250001192093));
#1177=CARTESIAN_POINT('',(141.000001907471,210.625003576279,20.9500001192093));
#1178=CARTESIAN_POINT('',(141.250001907471,210.625003576279,20.7000001192093));
#1179=CARTESIAN_POINT('',(141.000001907471,210.625003576279,20.9500001192093));
#1180=CARTESIAN_POINT('',(141.250001907471,190.975003576278,20.7000001192093));
#1181=CARTESIAN_POINT('',(141.000001907471,190.975003576278,20.9500001192093));
#1182=CARTESIAN_POINT('Origin',(143.750001907471,210.625003576279,20.8250001192093));
#1183=CARTESIAN_POINT('',(146.500001907471,210.625001287257,20.9500001192093));
#1184=CARTESIAN_POINT('',(146.25000190747,210.62500149535,20.7000001192093));
#1185=CARTESIAN_POINT('',(146.500001907471,210.625001287257,20.9500001192093));
#1186=CARTESIAN_POINT('Origin',(143.750001907471,210.625003576279,20.7000001192093));
#1187=CARTESIAN_POINT('Origin',(143.750001907471,210.625003576279,20.9500001192093));
#1188=CARTESIAN_POINT('Origin',(146.375001907471,204.075002431768,20.8250001192093));
#1189=CARTESIAN_POINT('',(146.500001907471,204.075002431768,20.9500001192093));
#1190=CARTESIAN_POINT('',(146.250001907471,204.075002431768,20.7000001192093));
#1191=CARTESIAN_POINT('Origin',(146.250001907471,187.550003576278,20.8250001192093));
#1192=CARTESIAN_POINT('',(146.250001907471,187.425003576278,20.9500001192093));
#1193=CARTESIAN_POINT('',(146.250001907471,187.675003576278,20.7000001192093));
#1194=CARTESIAN_POINT('Origin',(146.500001907471,210.625001287257,24.2000001192093));
#1195=CARTESIAN_POINT('',(146.500001907471,210.625001287257,24.2000001192093));
#1196=CARTESIAN_POINT('',(146.500001907471,210.625001287257,24.2000001192093));
#1197=CARTESIAN_POINT('',(146.500001907471,210.625001287257,24.2000001192093));
#1198=CARTESIAN_POINT('Origin',(143.750001907471,210.625003576279,24.2000001192093));
#1199=CARTESIAN_POINT('',(141.000001907471,210.625003576279,24.2000001192093));
#1200=CARTESIAN_POINT('',(141.000001907471,210.625003576279,24.2000001192093));
#1201=CARTESIAN_POINT('Origin',(143.750001907471,210.625003576279,24.2000001192093));
#1202=CARTESIAN_POINT('Origin',(141.000001907471,184.425003576278,24.2000001192093));
#1203=CARTESIAN_POINT('',(141.000001907471,207.625003576279,24.2000001192093));
#1204=CARTESIAN_POINT('',(141.000001907471,207.625003576279,24.2000001192093));
#1205=CARTESIAN_POINT('',(141.000001907471,210.625003576279,24.2000001192093));
#1206=CARTESIAN_POINT('',(141.000001907471,184.425003576278,24.2000001192093));
#1207=CARTESIAN_POINT('',(141.000001907471,184.425003576278,24.2000001192093));
#1208=CARTESIAN_POINT('',(141.000001907471,210.625003576279,24.2000001192093));
#1209=CARTESIAN_POINT('',(141.000001907471,193.275003576278,24.2000001192093));
#1210=CARTESIAN_POINT('',(141.000001907471,193.275003576278,24.2000001192093));
#1211=CARTESIAN_POINT('',(141.000001907471,210.625003576279,24.2000001192093));
#1212=CARTESIAN_POINT('Origin',(143.750001907471,184.425003576278,24.2000001192093));
#1213=CARTESIAN_POINT('',(146.500001907471,184.425003576278,24.2000001192093));
#1214=CARTESIAN_POINT('',(146.500001907471,184.425003576278,24.2000001192093));
#1215=CARTESIAN_POINT('Origin',(143.750001907471,184.425003576278,24.2000001192093));
#1216=CARTESIAN_POINT('Origin',(146.500001907471,187.425003576278,24.2000001192093));
#1217=CARTESIAN_POINT('',(146.500001907471,210.625001287257,24.2000001192093));
#1218=CARTESIAN_POINT('Origin',(144.500001907471,197.525003576278,20.7000001192093));
#1219=CARTESIAN_POINT('',(141.500001907471,210.625003576279,20.7000001192093));
#1220=CARTESIAN_POINT('Origin',(143.750001907471,210.625003576279,20.7000001192093));
#1221=CARTESIAN_POINT('',(141.500001907471,184.425003576278,20.7000001192093));
#1222=CARTESIAN_POINT('Origin',(143.750001907471,184.425003576278,20.7000001192093));
#1223=CARTESIAN_POINT('Origin',(143.750001907471,210.625003576279,20.8250001192093));
#1224=CARTESIAN_POINT('',(141.750001907471,210.625003576279,20.9500001192093));
#1225=CARTESIAN_POINT('',(141.625001907471,210.625003576279,20.8250001192093));
#1226=CARTESIAN_POINT('Origin',(143.750001907471,210.625003576279,20.9500001192093));
#1227=CARTESIAN_POINT('Origin',(143.750001907471,210.625003576279,20.7000001192093));
#1228=CARTESIAN_POINT('',(141.750001907471,210.625003576279,22.7000001192093));
#1229=CARTESIAN_POINT('',(141.750001907471,210.625003576279,20.7000001192093));
#1230=CARTESIAN_POINT('Origin',(143.750001907471,210.625003576279,22.7000001192093));
#1231=CARTESIAN_POINT('Origin',(143.750001907471,184.425003576278,20.8250001192093));
#1232=CARTESIAN_POINT('',(141.750001907471,184.425003576278,20.9500001192093));
#1233=CARTESIAN_POINT('',(141.625001907471,184.425003576278,20.8250001192093));
#1234=CARTESIAN_POINT('Origin',(143.750001907471,184.425003576278,20.9500001192093));
#1235=CARTESIAN_POINT('Origin',(143.750001907471,184.425003576278,20.7000001192093));
#1236=CARTESIAN_POINT('',(141.750001907471,184.425003576278,22.7000001192093));
#1237=CARTESIAN_POINT('',(141.750001907471,184.425003576278,20.7000001192093));
#1238=CARTESIAN_POINT('Origin',(143.750001907471,184.425003576278,22.7000001192093));
#1239=CARTESIAN_POINT('Origin',(146.500001907471,193.275003576278,24.2000001192093));
#1240=CARTESIAN_POINT('',(145.500001907471,193.275003576278,24.2000001192093));
#1241=CARTESIAN_POINT('Origin',(146.500001907471,207.625003576279,24.2000001192093));
#1242=CARTESIAN_POINT('',(145.500001907471,207.625003576279,24.2000001192093));
#1243=CARTESIAN_POINT('Origin',(144.500001907471,197.525003576278,24.2000001192093));
#1244=CARTESIAN_POINT('',(148.000001907471,187.425003576278,24.2000001192093));
#1245=CARTESIAN_POINT('',(146.500001907472,187.425003576278,24.2000001192093));
#1246=CARTESIAN_POINT('',(148.000001907471,207.625003576279,24.2000001192093));
#1247=CARTESIAN_POINT('',(148.000001907471,206.525003576279,24.2000001192093));
#1248=CARTESIAN_POINT('',(148.000001907471,207.625003576279,24.2000001192093));
#1249=CARTESIAN_POINT('',(142.650001907471,184.425003576278,24.2000001192093));
#1250=CARTESIAN_POINT('Origin',(143.750001907471,184.425003576278,24.2000001192093));
#1251=CARTESIAN_POINT('',(142.650001907471,210.625003576279,24.2000001192093));
#1252=CARTESIAN_POINT('Origin',(143.750001907471,210.625003576279,24.2000001192093));
#1253=CARTESIAN_POINT('Origin',(143.750001907471,184.425003576278,22.7000001192093));
#1254=CARTESIAN_POINT('',(142.650001907471,184.425003576278,22.7000001192093));
#1255=CARTESIAN_POINT('Origin',(143.750001907471,184.425003576278,22.7000001192093));
#1256=CARTESIAN_POINT('Origin',(143.750001907471,210.625003576279,22.7000001192093));
#1257=CARTESIAN_POINT('',(142.650001907471,210.625003576279,22.7000001192093));
#1258=CARTESIAN_POINT('Origin',(143.750001907471,210.625003576279,22.7000001192093));
#1259=CARTESIAN_POINT('Origin',(143.750001907471,210.625003576279,24.2000001192093));
#1260=CARTESIAN_POINT('',(142.650001907471,210.625003576279,24.2000001192093));
#1261=CARTESIAN_POINT('Origin',(143.750001907471,184.425003576278,24.2000001192093));
#1262=CARTESIAN_POINT('',(142.650001907471,184.425003576278,24.2000001192093));
#1263=CARTESIAN_POINT('Origin',(148.000001907471,187.425003576278,24.2000001192093));
#1264=CARTESIAN_POINT('',(148.000001907471,187.425003576278,24.2000001192093));
#1265=CARTESIAN_POINT('Origin',(148.000001907471,207.625003576279,24.2000001192093));
#1266=CARTESIAN_POINT('',(148.000001907471,207.625003576279,24.2000001192093));
#1267=CARTESIAN_POINT('Origin',(146.500001907471,207.625003576279,24.2000001192093));
#1268=UNCERTAINTY_MEASURE_WITH_UNIT(LENGTH_MEASURE(0.01),#1272,
'DISTANCE_ACCURACY_VALUE',
'Maximum model space distance between geometric entities at asserted c
onnectivities');
#1269=UNCERTAINTY_MEASURE_WITH_UNIT(LENGTH_MEASURE(0.01),#1272,
'DISTANCE_ACCURACY_VALUE',
'Maximum model space distance between geometric entities at asserted c
onnectivities');
#1270=(
GEOMETRIC_REPRESENTATION_CONTEXT(3)
GLOBAL_UNCERTAINTY_ASSIGNED_CONTEXT((#1268))
GLOBAL_UNIT_ASSIGNED_CONTEXT((#1272,#1273,#1274))
REPRESENTATION_CONTEXT('','3D')
);
#1271=(
GEOMETRIC_REPRESENTATION_CONTEXT(3)
GLOBAL_UNCERTAINTY_ASSIGNED_CONTEXT((#1269))
GLOBAL_UNIT_ASSIGNED_CONTEXT((#1272,#1273,#1274))
REPRESENTATION_CONTEXT('','3D')
);
#1272=(
LENGTH_UNIT()
NAMED_UNIT(*)
SI_UNIT(.MILLI.,.METRE.)
);
#1273=(
NAMED_UNIT(*)
PLANE_ANGLE_UNIT()
SI_UNIT($,.RADIAN.)
);
#1274=(
NAMED_UNIT(*)
SI_UNIT($,.STERADIAN.)
SOLID_ANGLE_UNIT()
);
#1275=SHAPE_DEFINITION_REPRESENTATION(#1276,#1277);
#1276=PRODUCT_DEFINITION_SHAPE('',$,#1279);
#1277=SHAPE_REPRESENTATION('',(#778),#1270);
#1278=PRODUCT_DEFINITION_CONTEXT('part definition',#1283,'design');
#1279=PRODUCT_DEFINITION('2026-09-26-23-33-06-676','GPS Clamp',#1280,#1278);
#1280=PRODUCT_DEFINITION_FORMATION('',$,#1285);
#1281=PRODUCT_RELATED_PRODUCT_CATEGORY('GPS Clamp','GPS Clamp',(#1285));
#1282=APPLICATION_PROTOCOL_DEFINITION('international standard',
'automotive_design',2009,#1283);
#1283=APPLICATION_CONTEXT(
'Core Data for Automotive Mechanical Design Process');
#1284=PRODUCT_CONTEXT('part definition',#1283,'mechanical');
#1285=PRODUCT('2026-09-26-23-33-06-676','GPS Clamp',$,(#1284));
#1286=PRESENTATION_STYLE_ASSIGNMENT((#1287));
#1287=SURFACE_STYLE_USAGE(.BOTH.,#1288);
#1288=SURFACE_SIDE_STYLE('',(#1289));
#1289=SURFACE_STYLE_FILL_AREA(#1290);
#1290=FILL_AREA_STYLE('Steel - Satin',(#1291));
#1291=FILL_AREA_STYLE_COLOUR('Steel - Satin',#1292);
#1292=COLOUR_RGB('Steel - Satin',0.627450980392157,0.627450980392157,0.627450980392157);
ENDSEC;
END-ISO-10303-21;
